<svg width="96" height="96" viewBox="0 0 96 96" fill="none" xmlns="http://www.w3.org/2000/svg">
<path d="M48 90C36.8609 90 26.178 85.575 18.3015 77.6985C10.425 69.822 6 59.1391 6 48C6 36.8609 10.425 26.178 18.3015 18.3015C26.178 10.425 36.8609 6 48 6C59.1391 6 69.822 10.425 77.6985 18.3015C85.575 26.178 90 36.8609 90 48C90 59.1391 85.575 69.822 77.6985 77.6985C69.822 85.575 59.1391 90 48 90ZM48 96C60.7304 96 72.9394 90.9429 81.9411 81.9411C90.9429 72.9394 96 60.7304 96 48C96 35.2696 90.9429 23.0606 81.9411 14.0589C72.9394 5.05713 60.7304 0 48 0C35.2696 0 23.0606 5.05713 14.0589 14.0589C5.05713 23.0606 0 35.2696 0 48C0 60.7304 5.05713 72.9394 14.0589 81.9411C23.0606 90.9429 35.2696 96 48 96V96Z" fill="#901C1C"/>
<path d="M54.876 30.876C55.1547 30.5966 55.4857 30.375 55.8502 30.2237C56.2147 30.0725 56.6054 29.9946 57 29.9946C57.3946 29.9946 57.7853 30.0725 58.1498 30.2237C58.5143 30.375 58.8453 30.5966 59.124 30.876L63 34.758L66.876 30.876C67.4393 30.3127 68.2033 29.9962 69 29.9962C69.7966 29.9962 70.5607 30.3127 71.124 30.876C71.6873 31.4393 72.0038 32.2033 72.0038 33C72.0038 33.7967 71.6873 34.5607 71.124 35.124L67.242 39L71.124 42.876C71.6873 43.4393 72.0038 44.2033 72.0038 45C72.0038 45.7967 71.6873 46.5607 71.124 47.124C70.5607 47.6873 69.7966 48.0038 69 48.0038C68.2033 48.0038 67.4393 47.6873 66.876 47.124L63 43.242L59.124 47.124C58.8451 47.4029 58.5139 47.6242 58.1495 47.7751C57.7851 47.9261 57.3945 48.0038 57 48.0038C56.6055 48.0038 56.2149 47.9261 55.8505 47.7751C55.4861 47.6242 55.1549 47.4029 54.876 47.124C54.5971 46.8451 54.3758 46.5139 54.2248 46.1495C54.0739 45.7851 53.9962 45.3945 53.9962 45C53.9962 44.6055 54.0739 44.2149 54.2248 43.8505C54.3758 43.4861 54.5971 43.1549 54.876 42.876L58.758 39L54.876 35.124C54.5966 34.8453 54.375 34.5143 54.2237 34.1498C54.0725 33.7853 53.9946 33.3946 53.9946 33C53.9946 32.6054 54.0725 32.2147 54.2237 31.8502C54.375 31.4857 54.5966 31.1547 54.876 30.876ZM24.876 30.876C25.1547 30.5966 25.4857 30.375 25.8502 30.2237C26.2147 30.0725 26.6054 29.9946 27 29.9946C27.3946 29.9946 27.7853 30.0725 28.1498 30.2237C28.5143 30.375 28.8453 30.5966 29.124 30.876L33 34.758L36.876 30.876C37.1549 30.5971 37.4861 30.3758 37.8505 30.2249C38.2149 30.0739 38.6055 29.9962 39 29.9962C39.3945 29.9962 39.7851 30.0739 40.1495 30.2249C40.5139 30.3758 40.8451 30.5971 41.124 30.876C41.4029 31.1549 41.6242 31.4861 41.7751 31.8505C41.9261 32.2149 42.0038 32.6055 42.0038 33C42.0038 33.3945 41.9261 33.7851 41.7751 34.1495C41.6242 34.5139 41.4029 34.8451 41.124 35.124L37.242 39L41.124 42.876C41.4029 43.1549 41.6242 43.4861 41.7751 43.8505C41.9261 44.2149 42.0038 44.6055 42.0038 45C42.0038 45.3945 41.9261 45.7851 41.7751 46.1495C41.6242 46.5139 41.4029 46.8451 41.124 47.124C40.8451 47.4029 40.5139 47.6242 40.1495 47.7751C39.7851 47.9261 39.3945 48.0038 39 48.0038C38.6055 48.0038 38.2149 47.9261 37.8505 47.7751C37.4861 47.6242 37.1549 47.4029 36.876 47.124L33 43.242L29.124 47.124C28.8451 47.4029 28.5139 47.6242 28.1495 47.7751C27.7851 47.9261 27.3945 48.0038 27 48.0038C26.6055 48.0038 26.2149 47.9261 25.8505 47.7751C25.4861 47.6242 25.1549 47.4029 24.876 47.124C24.5971 46.8451 24.3758 46.5139 24.2249 46.1495C24.0739 45.7851 23.9962 45.3945 23.9962 45C23.9962 44.6055 24.0739 44.2149 24.2249 43.8505C24.3758 43.4861 24.5971 43.1549 24.876 42.876L28.758 39L24.876 35.124C24.5966 34.8453 24.375 34.5143 24.2237 34.1498C24.0725 33.7853 23.9946 33.3946 23.9946 33C23.9946 32.6054 24.0725 32.2147 24.2237 31.8502C24.375 31.4857 24.5966 31.1547 24.876 30.876V30.876ZM60 66C60 69.1826 58.7357 72.2348 56.4853 74.4853C54.2348 76.7357 51.1826 78 48 78C44.8174 78 41.7651 76.7357 39.5147 74.4853C37.2643 72.2348 36 69.1826 36 66C36 62.8174 37.2643 59.7652 39.5147 57.5147C41.7651 55.2643 44.8174 54 48 54C51.1826 54 54.2348 55.2643 56.4853 57.5147C58.7357 59.7652 60 62.8174 60 66V66Z" fill="#901C1C"/>
</svg>
